<svg viewBox="0 0 32 32" xmlns="http://www.w3.org/2000/svg" xmlns:xlink="http://www.w3.org/1999/xlink" width="32.000000" height="32.000000" fill="none" customFrame="#000000">
	<defs>
		<clipPath id="clipPath_0">
			<rect width="16.000000" height="16.000000" x="8.000000" y="8.000000" fill="rgb(255,255,255)" />
		</clipPath>
	</defs>
	<g id="Group 1">
		<circle id="Ellipse 1" cx="16" cy="16" r="16" fill="rgb(255,255,255)" />
		<circle id="Ellipse 1" cx="16" cy="16" r="15.5" stroke="rgb(241,242,244)" stroke-width="1.000000" />
		<g id="Trash" clip-path="url(#clipPath_0)" customFrame="url(#clipPath_0)">
			<rect id="Trash" width="16.000000" height="16.000000" x="8.000000" y="8.000000" fill="rgb(255,255,255)" fill-opacity="0" />
			<path id="Vector" d="M21.5 11L19 11L19 10.5C19 10.1022 18.842 9.72064 18.5607 9.43934C18.2794 9.15804 17.8978 9 17.5 9L14.5 9C14.1022 9 13.7206 9.15804 13.4393 9.43934C13.158 9.72064 13 10.1022 13 10.5L13 11L10.5 11C10.3674 11 10.2402 11.0527 10.1464 11.1464C10.0527 11.2402 10 11.3674 10 11.5C10 11.6326 10.0527 11.7598 10.1464 11.8536C10.2402 11.9473 10.3674 12 10.5 12L11 12L11 21C11 21.2652 11.1054 21.5196 11.2929 21.7071C11.4804 21.8946 11.7348 22 12 22L20 22C20.2652 22 20.5196 21.8946 20.7071 21.7071C20.8946 21.5196 21 21.2652 21 21L21 12L21.5 12C21.6326 12 21.7598 11.9473 21.8536 11.8536C21.9473 11.7598 22 11.6326 22 11.5C22 11.3674 21.9473 11.2402 21.8536 11.1464C21.7598 11.0527 21.6326 11 21.5 11ZM14 10.5C14 10.3674 14.0527 10.2402 14.1464 10.1464C14.2402 10.0527 14.3674 10 14.5 10L17.5 10C17.6326 10 17.7598 10.0527 17.8536 10.1464C17.9473 10.2402 18 10.3674 18 10.5L18 11L14 11L14 10.5ZM20 21L12 21L12 12L20 12L20 21ZM15 14.5L15 18.5C15 18.6326 14.9473 18.7598 14.8536 18.8536C14.7598 18.9473 14.6326 19 14.5 19C14.3674 19 14.2402 18.9473 14.1464 18.8536C14.0527 18.7598 14 18.6326 14 18.5L14 14.5C14 14.3674 14.0527 14.2402 14.1464 14.1464C14.2402 14.0527 14.3674 14 14.5 14C14.6326 14 14.7598 14.0527 14.8536 14.1464C14.9473 14.2402 15 14.3674 15 14.5ZM18 14.5L18 18.5C18 18.6326 17.9473 18.7598 17.8536 18.8536C17.7598 18.9473 17.6326 19 17.5 19C17.3674 19 17.2402 18.9473 17.1464 18.8536C17.0527 18.7598 17 18.6326 17 18.5L17 14.5C17 14.3674 17.0527 14.2402 17.1464 14.1464C17.2402 14.0527 17.3674 14 17.5 14C17.6326 14 17.7598 14.0527 17.8536 14.1464C17.9473 14.2402 18 14.3674 18 14.5Z" fill="rgb(100,116,139)" fill-rule="nonzero" />
		</g>
	</g>
</svg>
